Coordinates
nRows=231
nColumns=2
inDegrees=yes
endheader
time	ankle_angle_r	
2.79435	 -0.421301	
2.82762	 -0.426310	
2.86089	 -0.426306	
2.89415	 -0.426825	
2.92742	 -0.432254	
2.96069	 -0.436801	
2.99395	 -0.436557	
3.02722	 -0.434648	
3.06048	 -0.432556	
3.09375	 -0.431341	
3.12702	 -0.433922	
3.16028	 -0.439550	
3.19355	 -0.444663	
3.22681	 -0.446550	
3.26008	 -0.445389	
3.29335	 -0.445057	
3.32661	 -0.446216	
3.35988	 -0.445884	
3.39315	 -0.448388	
3.42641	 -0.460983	
3.45968	 -0.479003	
3.49294	 -0.490904	
3.52621	 -0.493579	
3.55948	 -0.494222	
3.59274	 -0.501542	
3.62601	 -0.515931	
3.65927	 -0.529583	
3.69254	 -0.536361	
3.72581	 -0.533851	
3.75907	 -0.522143	
3.79234	 -0.508124	
3.8256	 -0.499964	
3.85887	 -0.498348	
3.89214	 -0.501095	
3.9254	 -0.507232	
3.95867	 -0.515338	
3.99194	 -0.524097	
4.0252	 -0.528736	
4.05847	 -0.522049	
4.09173	 -0.508473	
4.125	 -0.501522	
4.15827	 -0.503324	
4.19153	 -0.505969	
4.2248	 -0.506613	
4.25806	 -0.506843	
4.29133	 -0.506885	
4.3246	 -0.505768	
4.35786	 -0.502731	
4.39113	 -0.498900	
4.4244	 -0.495865	
4.45766	 -0.493671	
4.49093	 -0.492107	
4.52419	 -0.489450	
4.55746	 -0.483567	
4.59073	 -0.476688	
4.62399	 -0.471924	
4.65726	 -0.469396	
4.69052	 -0.470272	
4.72379	 -0.476936	
4.75706	 -0.486476	
4.79032	 -0.488122	
4.82359	 -0.474228	
4.85685	 -0.451968	
4.89012	 -0.433556	
4.92339	 -0.422706	
4.95665	 -0.419610	
4.98992	 -0.424458	
5.02319	 -0.430553	
5.05645	 -0.429663	
5.08972	 -0.424461	
5.12298	 -0.422670	
5.15625	 -0.424086	
5.18952	 -0.423058	
5.22278	 -0.419157	
5.25605	 -0.418780	
5.28931	 -0.424654	
5.32258	 -0.429222	
5.35585	 -0.425545	
5.38911	 -0.416737	
5.42238	 -0.409076	
5.45565	 -0.405966	
5.48891	 -0.408007	
5.52218	 -0.413041	
5.55544	 -0.419192	
5.58871	 -0.427526	
5.62198	 -0.439784	
5.65524	 -0.453759	
5.68851	 -0.461717	
5.72177	 -0.458884	
5.75504	 -0.453836	
5.78831	 -0.460016	
5.82157	 -0.476644	
5.85484	 -0.489670	
5.8881	 -0.490288	
5.92137	 -0.483030	
5.95464	 -0.478883	
5.9879	 -0.484018	
6.02117	 -0.492360	
6.05444	 -0.495431	
6.0877	 -0.495732	
6.12097	 -0.497313	
6.15423	 -0.497591	
6.1875	 -0.495567	
6.22077	 -0.491320	
6.25403	 -0.482867	
6.2873	 -0.471174	
6.32056	 -0.461454	
6.35383	 -0.459111	
6.3871	 -0.460809	
6.42036	 -0.454957	
6.45363	 -0.440760	
6.4869	 -0.430816	
6.52016	 -0.431034	
6.55343	 -0.436590	
6.58669	 -0.441910	
6.61996	 -0.444177	
6.65323	 -0.443660	
6.68649	 -0.440848	
6.71976	 -0.436105	
6.75302	 -0.434098	
6.78629	 -0.437170	
6.81956	 -0.439756	
6.85282	 -0.439235	
6.88609	 -0.438369	
6.91935	 -0.436602	
6.95262	 -0.433484	
6.98589	 -0.433279	
7.01915	 -0.440378	
7.05242	 -0.456058	
7.08569	 -0.475202	
7.11895	 -0.489701	
7.15222	 -0.499362	
7.18548	 -0.507082	
7.21875	 -0.510044	
7.25202	 -0.507678	
7.28528	 -0.504677	
7.31855	 -0.503451	
7.35181	 -0.503222	
7.38508	 -0.503003	
7.41835	 -0.501864	
7.45161	 -0.499090	
7.48488	 -0.495010	
7.51815	 -0.492377	
7.55141	 -0.496313	
7.58468	 -0.507027	
7.61794	 -0.516495	
7.65121	 -0.519439	
7.68448	 -0.517428	
7.71774	 -0.510488	
7.75101	 -0.498912	
7.78427	 -0.488182	
7.81754	 -0.481340	
7.85081	 -0.475696	
7.88407	 -0.468089	
7.91734	 -0.459031	
7.9506	 -0.454066	
7.98387	 -0.453556	
8.01714	 -0.448090	
8.0504	 -0.435598	
8.08367	 -0.426048	
8.11694	 -0.424965	
8.1502	 -0.427665	
8.18347	 -0.427762	
8.21673	 -0.424167	
8.25	 -0.419073	
8.28327	 -0.412386	
8.31653	 -0.404901	
8.3498	 -0.400517	
8.38306	 -0.399087	
8.41633	 -0.398693	
8.4496	 -0.402681	
8.48286	 -0.411712	
8.51613	 -0.418947	
8.5494	 -0.420979	
8.58266	 -0.422295	
8.61593	 -0.428940	
8.64919	 -0.443230	
8.68246	 -0.459534	
8.71573	 -0.469677	
8.74899	 -0.472818	
8.78226	 -0.470701	
8.81552	 -0.464439	
8.84879	 -0.459557	
8.88206	 -0.459855	
8.91532	 -0.462505	
8.94859	 -0.464891	
8.98185	 -0.466255	
9.01512	 -0.465610	
9.04839	 -0.463189	
9.08165	 -0.459976	
9.11492	 -0.459494	
9.14819	 -0.466817	
9.18145	 -0.476739	
9.21472	 -0.477199	
9.24798	 -0.468303	
9.28125	 -0.457776	
9.31452	 -0.448091	
9.34778	 -0.440706	
9.38105	 -0.436257	
9.41431	 -0.433408	
9.44758	 -0.431829	
9.48085	 -0.428035	
9.51411	 -0.419473	
9.54738	 -0.412325	
9.58065	 -0.411966	
9.61391	 -0.414882	
9.64718	 -0.415806	
9.68044	 -0.414026	
9.71371	 -0.412460	
9.74698	 -0.412865	
9.78024	 -0.413808	
9.81351	 -0.414929	
9.84677	 -0.416643	
9.88004	 -0.418032	
9.91331	 -0.421337	
9.94657	 -0.428164	
9.97984	 -0.432719	
10.0131	 -0.431935	
10.0464	 -0.432468	
10.0796	 -0.441975	
10.1129	 -0.462774	
10.1462	 -0.489078	
10.1794	 -0.509458	
10.2127	 -0.518091	
10.246	 -0.518438	
10.2792	 -0.516388	
10.3125	 -0.516229	
10.3458	 -0.518835	
10.379	 -0.519824	
10.4123	 -0.514412	
10.4456	 -0.503556	
